<svg version="1.1" id="Layer_1" xmlns="http://www.w3.org/2000/svg" xmlns:xlink="http://www.w3.org/1999/xlink" x="0px" y="0px"
	 width="100%" viewBox="0 0 1536 1024" enable-background="new 0 0 1536 1024" xml:space="preserve">
<path fill="#FAFAFA" opacity="1.000000" stroke="none" 
	d="
M976.000000,1025.000000 
	C650.666687,1025.000000 325.833344,1025.000000 1.000000,1025.000000 
	C1.000000,683.666687 1.000000,342.333344 1.000000,1.000000 
	C513.000000,1.000000 1025.000000,1.000000 1537.000000,1.000000 
	C1537.000000,342.333344 1537.000000,683.666687 1537.000000,1025.000000 
	C1350.166626,1025.000000 1163.333374,1025.000000 976.000000,1025.000000 
M501.706329,404.404053 
	C491.786133,396.533051 481.081848,390.065735 468.419495,385.659668 
	C444.416443,376.818604 420.000854,376.057007 395.519867,382.932678 
	C381.400116,386.898285 368.150421,393.068176 356.368317,403.236267 
	C344.243134,412.472748 333.925812,423.298492 326.271851,437.342133 
	C318.651703,449.581268 313.342621,462.696625 310.938995,477.769897 
	C310.463501,480.716095 309.756683,483.646301 309.551514,486.611206 
	C308.516510,501.567169 308.307068,516.474365 313.186554,531.713379 
	C319.475769,554.047852 330.740967,573.366760 348.260498,589.669617 
	C374.831390,613.419617 405.725525,624.210022 441.359619,620.515015 
	C465.792725,617.981506 487.266296,608.576111 506.236847,592.011230 
	C520.606323,579.785828 531.239990,564.886963 538.715027,546.858521 
	C540.382446,542.174866 542.343445,537.572205 543.662842,532.792480 
	C547.808411,517.774414 549.306763,502.514191 547.268372,486.250854 
	C546.858215,483.293701 546.656067,480.289673 546.002563,477.387299 
	C542.784180,463.093536 538.750244,449.104095 529.966309,436.308502 
	C522.668518,424.076416 513.665344,413.364136 501.706329,404.404053 
M896.670166,517.500610 
	C896.670166,505.709106 896.670166,493.917603 896.670166,482.126099 
	C898.110962,482.842346 898.534668,483.683044 898.911926,484.544037 
	C904.786316,497.951599 911.084595,511.195831 916.351135,524.838318 
	C919.170837,532.142273 923.019653,535.457031 930.954651,534.240662 
	C933.698181,533.820068 935.357666,533.413513 936.534851,530.659424 
	C942.090576,517.661133 947.858765,504.753479 953.591553,491.831390 
	C955.096680,488.438599 956.746094,485.109772 958.329224,481.751587 
	C958.588745,481.843719 958.848206,481.935883 959.107727,482.028015 
	C959.107727,502.573547 959.107727,523.119080 959.107727,543.859558 
	C964.943848,543.859558 970.531372,543.859558 976.399292,543.859558 
	C976.399292,513.370239 976.399292,483.130127 976.399292,452.355194 
	C973.837036,452.355194 971.495789,452.683929 969.278503,452.298828 
	C959.159058,450.541046 954.118835,454.784241 950.436890,464.444946 
	C944.026611,481.263885 935.850586,497.409821 928.358276,513.962891 
	C927.977539,513.445801 927.601318,513.089417 927.409546,512.652161 
	C919.128784,493.770935 910.889160,474.871582 902.546631,456.017792 
	C901.941223,454.649689 900.651062,452.626129 899.595276,452.572815 
	C893.202576,452.250305 886.785339,452.412231 880.401001,452.412231 
	C880.401001,483.486542 880.401001,513.592590 880.401001,543.784119 
	C885.932861,543.784119 891.170288,543.784119 896.674866,543.784119 
	C896.674866,535.136047 896.674866,526.818298 896.670166,517.500610 
M600.846802,544.055298 
	C605.128967,544.055298 609.411194,544.055298 614.156738,544.055298 
	C614.156738,522.609436 614.156738,501.556824 614.156738,479.982086 
	C621.863647,497.107269 629.438965,513.547424 636.607056,530.163269 
	C638.253174,533.978943 640.706116,534.377869 643.992676,534.059021 
	C647.653625,533.703857 651.649475,535.441772 653.901184,530.064270 
	C660.197388,515.028137 667.100098,500.245880 673.774414,485.368408 
	C674.335632,484.117432 674.979553,482.903564 675.585083,481.672424 
	C675.882751,481.761749 676.180481,481.851074 676.478210,481.940399 
	C676.478210,502.483978 676.478210,523.027588 676.478210,543.687500 
	C682.534912,543.687500 688.224548,543.687500 693.833862,543.687500 
	C693.833862,513.047913 693.833862,482.798981 693.833862,452.423828 
	C688.314392,452.423828 683.139832,452.687012 678.008240,452.331573 
	C674.569336,452.093353 672.993591,453.422791 671.678528,456.405701 
	C665.637939,470.107452 659.379578,483.713074 653.233765,497.368652 
	C650.726196,502.940216 648.305786,508.550964 645.789795,514.270874 
	C637.126221,494.801697 628.650574,475.648773 620.023987,456.564087 
	C619.310608,454.985901 617.647217,452.813507 616.301147,452.720947 
	C610.245422,452.304474 604.144897,452.539307 597.707520,452.539307 
	C597.707520,482.685852 597.689941,512.163513 597.800537,541.640625 
	C597.803589,542.444214 599.188354,543.242615 600.846802,544.055298 
M1001.447266,494.480896 
	C1007.530701,493.871338 1013.650818,492.530487 1019.688354,492.833893 
	C1027.558594,493.229431 1030.398438,497.462189 1029.798462,506.050201 
	C1025.371582,506.050201 1020.865723,505.681335 1016.446350,506.141907 
	C1010.687622,506.742004 1004.800598,507.382019 999.325867,509.125732 
	C991.896484,511.491974 987.416138,518.506470 987.328918,525.919067 
	C987.231812,534.182922 991.225769,540.806213 998.831421,543.498352 
	C1008.041809,546.758423 1017.171936,546.129761 1025.790161,541.168823 
	C1027.151489,540.385193 1028.438477,539.472717 1030.284180,538.281494 
	C1030.775269,540.712036 1031.108765,542.362671 1031.409790,543.852417 
	C1036.933472,543.852417 1042.047607,543.852417 1046.914551,543.852417 
	C1046.914551,528.462585 1047.560181,513.311951 1046.678345,498.250702 
	C1046.126831,488.829895 1039.219727,483.256073 1030.280640,480.939392 
	C1026.300293,479.907867 1022.039185,479.473877 1017.921448,479.556854 
	C1008.604797,479.744659 999.509949,481.184174 991.324280,486.387756 
	C992.716736,490.202087 993.945862,493.569122 995.159058,496.892395 
	C997.303406,496.084808 999.006226,495.443512 1001.447266,494.480896 
M782.347900,543.255371 
	C794.128418,547.209229 805.139404,546.240906 814.988647,537.633301 
	C815.258606,540.062683 815.471619,541.979736 815.672791,543.789795 
	C821.169678,543.789795 826.259216,543.789795 831.705750,543.789795 
	C831.705750,529.553406 832.421204,515.560303 831.499451,501.675812 
	C830.622314,488.462952 822.919678,481.055084 809.606140,480.078918 
	C801.957886,479.518127 794.106689,480.789795 786.436035,481.869995 
	C782.688904,482.397644 779.145752,484.373596 775.336792,485.756989 
	C776.961304,490.064972 778.229614,493.428314 779.534363,496.888153 
	C788.080566,493.661499 796.336487,491.337067 805.178284,492.953766 
	C812.389587,494.272278 815.270142,498.395050 813.913086,506.051208 
	C811.182251,506.051208 808.360779,505.867065 805.571411,506.088287 
	C799.126465,506.599487 792.528198,506.608246 786.304382,508.112793 
	C778.585693,509.978760 772.936646,514.826843 771.818848,523.393005 
	C770.682007,532.104675 773.953613,538.657166 782.347900,543.255371 
M1092.352661,525.072021 
	C1100.248291,544.639526 1126.407349,552.333557 1144.012573,540.266418 
	C1155.868530,532.140015 1161.053589,515.221802 1156.175659,500.579071 
	C1151.460693,486.425690 1139.680420,478.926453 1123.111328,479.530243 
	C1106.267822,480.144043 1095.190063,488.197327 1091.515137,502.676758 
	C1089.678711,509.912384 1089.816528,517.161499 1092.352661,525.072021 
M726.867126,528.681641 
	C725.072632,525.537476 723.278198,522.393372 720.865234,518.165466 
	C729.733948,518.165466 736.870911,518.165466 744.007935,518.165466 
	C751.141357,518.165466 758.274841,518.165466 766.820374,518.165466 
	C765.655884,510.516876 765.217224,503.366455 763.374451,496.598358 
	C761.002197,487.885834 754.480042,482.398682 745.837158,480.458771 
	C724.262634,475.616302 704.677307,486.958405 704.430359,512.016541 
	C704.257263,529.579895 713.225952,541.657349 729.147278,544.684998 
	C738.613708,546.485168 748.080078,545.611938 757.277832,542.665161 
	C759.254517,542.031860 761.061951,540.870178 763.020996,539.916077 
	C761.686462,535.884827 760.515381,532.347473 759.344116,528.809326 
	C748.446960,533.058350 737.985046,535.933594 726.867126,528.681641 
M1079.556763,542.377136 
	C1079.556763,521.992371 1079.556763,501.607635 1079.556763,481.331848 
	C1073.246094,481.331848 1067.827148,481.331848 1062.071899,481.331848 
	C1062.071899,483.153229 1062.071411,484.623810 1062.071899,486.094421 
	C1062.078979,504.588837 1062.079102,523.083252 1062.095703,541.577698 
	C1062.108643,556.025818 1060.825806,557.276733 1046.551514,556.245361 
	C1047.064575,559.718689 1047.460449,563.141113 1048.138184,566.506897 
	C1048.325928,567.439758 1049.172607,568.629822 1050.017212,568.982117 
	C1062.313721,574.110901 1075.889771,566.860779 1078.445557,553.754333 
	C1079.111206,550.340759 1079.187378,546.812317 1079.556763,542.377136 
M846.105774,515.500000 
	C846.105774,524.924805 846.105774,534.349609 846.105774,543.885986 
	C852.103271,543.885986 857.541138,543.885986 863.220154,543.885986 
	C863.220154,512.560242 863.220154,481.440002 863.220154,450.413818 
	C857.360352,450.413818 851.933960,450.413818 846.105225,450.413818 
	C846.105225,471.989929 846.105225,493.245026 846.105774,515.500000 
M1168.966431,539.358704 
	C1169.061890,540.803589 1169.157349,542.248535 1169.264038,543.863647 
	C1175.029053,543.863647 1180.479614,543.863647 1186.523193,543.863647 
	C1186.523193,541.965515 1186.517334,540.172241 1186.524048,538.379028 
	C1186.558838,529.215088 1186.505127,520.049683 1186.658203,510.887695 
	C1186.827881,500.717224 1192.785767,494.951813 1203.007080,494.832031 
	C1205.102295,494.807495 1207.197998,494.828491 1209.186035,494.828491 
	C1209.186035,489.763641 1209.186035,485.006195 1209.186035,480.194153 
	C1199.177979,478.063934 1191.906738,481.853760 1186.253052,490.459381 
	C1185.855103,486.672699 1185.566040,483.922821 1185.287109,481.267975 
	C1179.645264,481.267975 1174.538086,481.267975 1168.955933,481.267975 
	C1168.955933,500.488251 1168.955933,519.435730 1168.966431,539.358704 
M1066.618774,468.137573 
	C1074.082642,469.917084 1080.398804,466.481201 1081.087158,460.266876 
	C1081.640625,455.271729 1078.902710,451.238739 1073.972168,449.786224 
	C1068.696411,448.232025 1063.591064,450.268494 1061.302612,454.840118 
	C1058.937622,459.564392 1060.542236,464.118347 1066.618774,468.137573 
z"/>
<path fill="#2D2D2D" opacity="1.000000" stroke="none" 
	d="
M896.672485,518.000610 
	C896.674866,526.818298 896.674866,535.136047 896.674866,543.784119 
	C891.170288,543.784119 885.932861,543.784119 880.401001,543.784119 
	C880.401001,513.592590 880.401001,483.486542 880.401001,452.412231 
	C886.785339,452.412231 893.202576,452.250305 899.595276,452.572815 
	C900.651062,452.626129 901.941223,454.649689 902.546631,456.017792 
	C910.889160,474.871582 919.128784,493.770935 927.409546,512.652161 
	C927.601318,513.089417 927.977539,513.445801 928.358276,513.962891 
	C935.850586,497.409821 944.026611,481.263885 950.436890,464.444946 
	C954.118835,454.784241 959.159058,450.541046 969.278503,452.298828 
	C971.495789,452.683929 973.837036,452.355194 976.399292,452.355194 
	C976.399292,483.130127 976.399292,513.370239 976.399292,543.859558 
	C970.531372,543.859558 964.943848,543.859558 959.107727,543.859558 
	C959.107727,523.119080 959.107727,502.573547 959.107727,482.028015 
	C958.848206,481.935883 958.588745,481.843719 958.329224,481.751587 
	C956.746094,485.109772 955.096680,488.438599 953.591553,491.831390 
	C947.858765,504.753479 942.090576,517.661133 936.534851,530.659424 
	C935.357666,533.413513 933.698181,533.820068 930.954651,534.240662 
	C923.019653,535.457031 919.170837,532.142273 916.351135,524.838318 
	C911.084595,511.195831 904.786316,497.951599 898.911926,484.544037 
	C898.534668,483.683044 898.110962,482.842346 896.670166,482.126099 
	C896.670166,493.917603 896.670166,505.709106 896.672485,518.000610 
z"/>
<path fill="#2A2B2A" opacity="1.000000" stroke="none" 
	d="
M600.387817,544.049316 
	C599.188354,543.242615 597.803589,542.444214 597.800537,541.640625 
	C597.689941,512.163513 597.707520,482.685852 597.707520,452.539307 
	C604.144897,452.539307 610.245422,452.304474 616.301147,452.720947 
	C617.647217,452.813507 619.310608,454.985901 620.023987,456.564087 
	C628.650574,475.648773 637.126221,494.801697 645.789795,514.270874 
	C648.305786,508.550964 650.726196,502.940216 653.233765,497.368652 
	C659.379578,483.713074 665.637939,470.107452 671.678528,456.405701 
	C672.993591,453.422791 674.569336,452.093353 678.008240,452.331573 
	C683.139832,452.687012 688.314392,452.423828 693.833862,452.423828 
	C693.833862,482.798981 693.833862,513.047913 693.833862,543.687500 
	C688.224548,543.687500 682.534912,543.687500 676.478210,543.687500 
	C676.478210,523.027588 676.478210,502.483978 676.478210,481.940399 
	C676.180481,481.851074 675.882751,481.761749 675.585083,481.672424 
	C674.979553,482.903564 674.335632,484.117432 673.774414,485.368408 
	C667.100098,500.245880 660.197388,515.028137 653.901184,530.064270 
	C651.649475,535.441772 647.653625,533.703857 643.992676,534.059021 
	C640.706116,534.377869 638.253174,533.978943 636.607056,530.163269 
	C629.438965,513.547424 621.863647,497.107269 614.156738,479.982086 
	C614.156738,501.556824 614.156738,522.609436 614.156738,544.055298 
	C609.411194,544.055298 605.128967,544.055298 600.387817,544.049316 
z"/>
<path fill="#2D2D2D" opacity="1.000000" stroke="none" 
	d="
M1001.078125,494.641541 
	C999.006226,495.443512 997.303406,496.084808 995.159058,496.892395 
	C993.945862,493.569122 992.716736,490.202087 991.324280,486.387756 
	C999.509949,481.184174 1008.604797,479.744659 1017.921448,479.556854 
	C1022.039185,479.473877 1026.300293,479.907867 1030.280640,480.939392 
	C1039.219727,483.256073 1046.126831,488.829895 1046.678345,498.250702 
	C1047.560181,513.311951 1046.914551,528.462585 1046.914551,543.852417 
	C1042.047607,543.852417 1036.933472,543.852417 1031.409790,543.852417 
	C1031.108765,542.362671 1030.775269,540.712036 1030.284180,538.281494 
	C1028.438477,539.472717 1027.151489,540.385193 1025.790161,541.168823 
	C1017.171936,546.129761 1008.041809,546.758423 998.831421,543.498352 
	C991.225769,540.806213 987.231812,534.182922 987.328918,525.919067 
	C987.416138,518.506470 991.896484,511.491974 999.325867,509.125732 
	C1004.800598,507.382019 1010.687622,506.742004 1016.446350,506.141907 
	C1020.865723,505.681335 1025.371582,506.050201 1029.798462,506.050201 
	C1030.398438,497.462189 1027.558594,493.229431 1019.688354,492.833893 
	C1013.650818,492.530487 1007.530701,493.871338 1001.078125,494.641541 
M1008.823669,532.107178 
	C1021.302185,536.358032 1031.033203,529.493774 1029.498413,516.556580 
	C1023.692139,516.887207 1017.697998,516.620728 1011.958862,517.704468 
	C1004.253723,519.159424 1002.628174,525.922302 1008.823669,532.107178 
z"/>
<path fill="#2D2D2D" opacity="1.000000" stroke="none" 
	d="
M782.008301,543.097290 
	C773.953613,538.657166 770.682007,532.104675 771.818848,523.393005 
	C772.936646,514.826843 778.585693,509.978760 786.304382,508.112793 
	C792.528198,506.608246 799.126465,506.599487 805.571411,506.088287 
	C808.360779,505.867065 811.182251,506.051208 813.913086,506.051208 
	C815.270142,498.395050 812.389587,494.272278 805.178284,492.953766 
	C796.336487,491.337067 788.080566,493.661499 779.534363,496.888153 
	C778.229614,493.428314 776.961304,490.064972 775.336792,485.756989 
	C779.145752,484.373596 782.688904,482.397644 786.436035,481.869995 
	C794.106689,480.789795 801.957886,479.518127 809.606140,480.078918 
	C822.919678,481.055084 830.622314,488.462952 831.499451,501.675812 
	C832.421204,515.560303 831.705750,529.553406 831.705750,543.789795 
	C826.259216,543.789795 821.169678,543.789795 815.672791,543.789795 
	C815.471619,541.979736 815.258606,540.062683 814.988647,537.633301 
	C805.139404,546.240906 794.128418,547.209229 782.008301,543.097290 
M789.041443,525.518250 
	C790.279907,527.682190 790.994568,530.860596 792.854431,531.821106 
	C798.571350,534.773254 804.447388,533.802185 809.712097,530.158264 
	C814.380005,526.927368 815.070923,522.278076 814.048706,516.946777 
	C808.555298,516.946777 803.257324,516.592346 798.031616,517.054626 
	C793.542114,517.451782 789.672913,519.401978 789.041443,525.518250 
z"/>
<path fill="#2A2B2A" opacity="1.000000" stroke="none" 
	d="
M1092.222046,524.696289 
	C1089.816528,517.161499 1089.678711,509.912384 1091.515137,502.676758 
	C1095.190063,488.197327 1106.267822,480.144043 1123.111328,479.530243 
	C1139.680420,478.926453 1151.460693,486.425690 1156.175659,500.579071 
	C1161.053589,515.221802 1155.868530,532.140015 1144.012573,540.266418 
	C1126.407349,552.333557 1100.248291,544.639526 1092.222046,524.696289 
M1136.759644,526.022339 
	C1140.322021,518.462341 1140.605713,510.673584 1138.205933,502.767303 
	C1136.052124,495.671448 1131.500732,492.218842 1124.423706,492.069855 
	C1117.255493,491.918945 1112.113403,495.560089 1109.964111,502.657440 
	C1108.003540,509.131042 1107.836304,515.660095 1109.865479,522.225281 
	C1111.639038,527.963867 1115.051880,531.832520 1121.173706,532.709045 
	C1127.335327,533.591248 1132.727783,532.283203 1136.759644,526.022339 
z"/>
<path fill="#2A2B2A" opacity="1.000000" stroke="none" 
	d="
M727.163757,528.925781 
	C737.985046,535.933594 748.446960,533.058350 759.344116,528.809326 
	C760.515381,532.347473 761.686462,535.884827 763.020996,539.916077 
	C761.061951,540.870178 759.254517,542.031860 757.277832,542.665161 
	C748.080078,545.611938 738.613708,546.485168 729.147278,544.684998 
	C713.225952,541.657349 704.257263,529.579895 704.430359,512.016541 
	C704.677307,486.958405 724.262634,475.616302 745.837158,480.458771 
	C754.480042,482.398682 761.002197,487.885834 763.374451,496.598358 
	C765.217224,503.366455 765.655884,510.516876 766.820374,518.165466 
	C758.274841,518.165466 751.141357,518.165466 744.007935,518.165466 
	C736.870911,518.165466 729.733948,518.165466 720.865234,518.165466 
	C723.278198,522.393372 725.072632,525.537476 727.163757,528.925781 
M733.312256,491.599487 
	C725.665344,494.307739 722.377991,498.853027 722.420776,506.703186 
	C731.495056,506.703186 740.566956,506.703186 749.632019,506.703186 
	C749.745911,495.803192 744.405640,490.638916 733.312256,491.599487 
z"/>
<path fill="#50A446" opacity="1.000000" stroke="none" 
	d="
M505.648834,592.221008 
	C487.266296,608.576111 465.792725,617.981506 441.359619,620.515015 
	C405.725525,624.210022 374.831390,613.419617 348.311005,589.085693 
	C351.609833,586.989502 354.858124,585.477295 358.413849,584.091431 
	C376.987396,599.711426 397.841522,608.699036 423.260101,610.123779 
	C418.260529,600.039673 413.796692,591.036133 409.708527,582.019287 
	C413.528870,581.287292 416.973541,580.568604 420.573792,580.171143 
	C422.369385,590.001099 427.214691,598.145142 435.322388,602.599609 
	C445.351257,608.109558 456.590942,608.944763 467.319397,603.282349 
	C475.522430,598.952820 483.567657,594.324219 492.060760,589.902710 
	C496.322845,593.780212 501.185028,591.828125 505.648834,592.221008 
z"/>
<path fill="#2D2D2D" opacity="1.000000" stroke="none" 
	d="
M1079.545654,542.856873 
	C1079.187378,546.812317 1079.111206,550.340759 1078.445557,553.754333 
	C1075.889771,566.860779 1062.313721,574.110901 1050.017212,568.982117 
	C1049.172607,568.629822 1048.325928,567.439758 1048.138184,566.506897 
	C1047.460449,563.141113 1047.064575,559.718689 1046.551514,556.245361 
	C1060.825806,557.276733 1062.108643,556.025818 1062.095703,541.577698 
	C1062.079102,523.083252 1062.078979,504.588837 1062.071899,486.094421 
	C1062.071411,484.623810 1062.071899,483.153229 1062.071899,481.331848 
	C1067.827148,481.331848 1073.246094,481.331848 1079.556763,481.331848 
	C1079.556763,501.607635 1079.556763,521.992371 1079.545654,542.856873 
z"/>
<path fill="#2D2D2D" opacity="1.000000" stroke="none" 
	d="
M846.105469,515.000061 
	C846.105225,493.245026 846.105225,471.989929 846.105225,450.413818 
	C851.933960,450.413818 857.360352,450.413818 863.220154,450.413818 
	C863.220154,481.440002 863.220154,512.560242 863.220154,543.885986 
	C857.541138,543.885986 852.103271,543.885986 846.105774,543.885986 
	C846.105774,534.349609 846.105774,524.924805 846.105469,515.000061 
M855.795532,474.230621 
	C855.398621,469.824707 852.768677,467.493530 848.617920,465.812012 
	C848.617920,472.229218 848.617920,477.898560 848.617920,483.567902 
	C848.942688,483.639679 849.267517,483.711426 849.592285,483.783203 
	C851.568542,480.825745 853.544739,477.868286 855.795532,474.230621 
M862.004883,476.448059 
	C862.004883,473.178925 862.004883,469.909821 862.004883,466.640686 
	C861.397644,466.662659 860.790344,466.684662 860.183105,466.706635 
	C860.183105,472.566223 860.183105,478.425781 860.183105,484.285370 
	C860.790344,484.305725 861.397644,484.326050 862.004883,484.346405 
	C862.004883,482.029755 862.004883,479.713135 862.004883,476.448059 
M861.998779,534.001343 
	C861.761414,533.180786 861.524048,532.360291 861.093994,530.873901 
	C858.408752,539.585815 858.415039,539.897522 861.078796,542.442749 
	C861.306396,542.232361 861.722290,542.031372 861.734497,541.808289 
	C861.861206,539.492065 861.922974,537.172363 861.998779,534.001343 
M861.854614,507.509369 
	C861.430359,507.209656 861.006104,506.909912 860.581848,506.610199 
	C860.468750,507.053894 860.355591,507.497589 860.242493,507.941284 
	C860.738647,507.994354 861.234802,508.047455 861.854614,507.509369 
M861.198853,453.598450 
	C861.203125,453.210541 861.207458,452.822632 861.211731,452.434723 
	C861.050720,452.433105 860.749817,452.420654 860.749023,452.431458 
	C860.719055,452.817535 860.717163,453.205811 861.198853,453.598450 
z"/>
<path fill="#2A2B2A" opacity="1.000000" stroke="none" 
	d="
M1168.961182,538.870972 
	C1168.955933,519.435730 1168.955933,500.488251 1168.955933,481.267975 
	C1174.538086,481.267975 1179.645264,481.267975 1185.287109,481.267975 
	C1185.566040,483.922821 1185.855103,486.672699 1186.253052,490.459381 
	C1191.906738,481.853760 1199.177979,478.063934 1209.186035,480.194153 
	C1209.186035,485.006195 1209.186035,489.763641 1209.186035,494.828491 
	C1207.197998,494.828491 1205.102295,494.807495 1203.007080,494.832031 
	C1192.785767,494.951813 1186.827881,500.717224 1186.658203,510.887695 
	C1186.505127,520.049683 1186.558838,529.215088 1186.524048,538.379028 
	C1186.517334,540.172241 1186.523193,541.965515 1186.523193,543.863647 
	C1180.479614,543.863647 1175.029053,543.863647 1169.264038,543.863647 
	C1169.157349,542.248535 1169.061890,540.803589 1168.961182,538.870972 
z"/>
<path fill="#B2D663" opacity="1.000000" stroke="none" 
	d="
M357.002808,403.000366 
	C368.150421,393.068176 381.400116,386.898285 395.519867,382.932678 
	C420.000854,376.057007 444.416443,376.818604 468.697876,386.254303 
	C467.114014,389.668945 465.251770,392.488953 463.025574,395.284546 
	C461.683350,395.065918 460.676727,394.961853 459.731018,394.664185 
	C439.164612,388.190918 418.511169,388.435577 397.854980,394.058929 
	C385.015747,397.554199 373.810120,404.383209 362.928375,411.506775 
	C360.928528,408.438141 358.965668,405.719238 357.002808,403.000366 
z"/>
<path fill="#68B24A" opacity="1.000000" stroke="none" 
	d="
M358.106415,583.965027 
	C354.858124,585.477295 351.609833,586.989502 348.157349,588.791626 
	C330.740967,573.366760 319.475769,554.047852 313.510925,531.180420 
	C316.899933,529.430237 319.964569,528.213074 323.219788,527.325928 
	C323.939758,529.837158 324.294189,532.078979 325.025696,534.190125 
	C331.760101,553.625610 343.048157,570.052490 358.106415,583.965027 
z"/>
<path fill="#68B24A" opacity="1.000000" stroke="none" 
	d="
M505.942841,592.116089 
	C501.185028,591.828125 496.322845,593.780212 492.242065,589.612488 
	C508.426575,577.002808 520.450806,561.301086 529.150574,543.085571 
	C532.322693,544.716064 535.258789,546.035706 538.194824,547.355286 
	C531.239990,564.886963 520.606323,579.785828 505.942841,592.116089 
z"/>
<path fill="#81BE51" opacity="1.000000" stroke="none" 
	d="
M529.951843,437.020935 
	C538.750244,449.104095 542.784180,463.093536 546.002563,477.387299 
	C546.656067,480.289673 546.858215,483.293701 546.850952,486.662598 
	C545.615967,488.681976 544.517517,490.210571 544.038513,491.913422 
	C543.013489,495.557129 541.595642,498.617188 537.174561,498.564209 
	C536.485657,478.068787 531.111816,459.391907 521.125366,441.777771 
	C524.172668,439.985687 527.062256,438.503296 529.951843,437.020935 
z"/>
<path fill="#81BE51" opacity="1.000000" stroke="none" 
	d="
M323.029175,526.995850 
	C319.964569,528.213074 316.899933,529.430237 313.517792,530.798828 
	C308.307068,516.474365 308.516510,501.567169 309.551514,486.611206 
	C309.756683,483.646301 310.463501,480.716095 311.438171,477.339844 
	C315.283508,476.940155 318.629700,476.970551 321.966553,477.413696 
	C321.296783,483.727081 319.893005,489.658875 320.138641,495.521576 
	C320.579102,506.034912 322.011383,516.506714 323.029175,526.995850 
z"/>
<path fill="#78B94E" opacity="1.000000" stroke="none" 
	d="
M537.261780,499.009857 
	C541.595642,498.617188 543.013489,495.557129 544.038513,491.913422 
	C544.517517,490.210571 545.615967,488.681976 546.747620,487.036987 
	C549.306763,502.514191 547.808411,517.774414 543.662842,532.792480 
	C542.343445,537.572205 540.382446,542.174866 538.454956,547.106934 
	C535.258789,546.035706 532.322693,544.716064 529.172180,542.721130 
	C534.654907,528.265747 537.153076,513.868286 537.261780,499.009857 
z"/>
<path fill="#99C758" opacity="1.000000" stroke="none" 
	d="
M321.975830,477.000946 
	C318.629700,476.970551 315.283508,476.940155 311.582520,476.966370 
	C313.342621,462.696625 318.651703,449.581268 326.959930,437.151428 
	C331.449951,436.987030 335.251923,437.013336 338.941833,437.368103 
	C336.956818,440.402008 334.486450,442.873596 333.319183,445.855377 
	C329.292664,456.141144 325.720825,466.604919 321.975830,477.000946 
z"/>
<path fill="#A5CF5E" opacity="1.000000" stroke="none" 
	d="
M339.053864,437.039612 
	C335.251923,437.013336 331.449951,436.987030 327.209290,436.932404 
	C333.925812,423.298492 344.243134,412.472748 356.685547,403.118317 
	C358.965668,405.719238 360.928528,408.438141 362.737457,411.783630 
	C355.439240,419.682281 348.294952,426.954407 340.945221,433.961487 
	C340.170441,434.816315 339.601074,435.936157 339.024017,437.041199 
	C339.016327,437.026367 339.053864,437.039612 339.053864,437.039612 
z"/>
<path fill="#99C758" opacity="1.000000" stroke="none" 
	d="
M529.959106,436.664734 
	C527.062256,438.503296 524.172668,439.985687 520.853516,441.574158 
	C513.692688,430.145691 504.340637,420.935333 494.710114,412.140137 
	C497.392578,409.656219 499.720673,407.318451 502.048737,404.980713 
	C513.665344,413.364136 522.668518,424.076416 529.959106,436.664734 
z"/>
<path fill="#A5CF5E" opacity="1.000000" stroke="none" 
	d="
M501.877533,404.692383 
	C499.720673,407.318451 497.392578,409.656219 494.418610,412.027222 
	C483.644989,406.476654 473.517273,400.892822 463.389526,395.308960 
	C465.251770,392.488953 467.114014,389.668945 468.973083,386.483704 
	C481.081848,390.065735 491.786133,396.533051 501.877533,404.692383 
z"/>
<path fill="#2D2D2D" opacity="1.000000" stroke="none" 
	d="
M1066.255615,468.001953 
	C1060.542236,464.118347 1058.937622,459.564392 1061.302612,454.840118 
	C1063.591064,450.268494 1068.696411,448.232025 1073.972168,449.786224 
	C1078.902710,451.238739 1081.640625,455.271729 1081.087158,460.266876 
	C1080.398804,466.481201 1074.082642,469.917084 1066.255615,468.001953 
z"/>
<path fill="#F6F6F6" opacity="1.000000" stroke="none" 
	d="
M1008.458191,531.918701 
	C1002.628174,525.922302 1004.253723,519.159424 1011.958862,517.704468 
	C1017.697998,516.620728 1023.692139,516.887207 1029.498413,516.556580 
	C1031.033203,529.493774 1021.302185,536.358032 1008.458191,531.918701 
z"/>
<path fill="#F6F6F6" opacity="1.000000" stroke="none" 
	d="
M789.047852,525.123047 
	C789.672913,519.401978 793.542114,517.451782 798.031616,517.054626 
	C803.257324,516.592346 808.555298,516.946777 814.048706,516.946777 
	C815.070923,522.278076 814.380005,526.927368 809.712097,530.158264 
	C804.447388,533.802185 798.571350,534.773254 792.854431,531.821106 
	C790.994568,530.860596 790.279907,527.682190 789.047852,525.123047 
z"/>
<path fill="#F6F6F6" opacity="1.000000" stroke="none" 
	d="
M1136.549072,526.336853 
	C1132.727783,532.283203 1127.335327,533.591248 1121.173706,532.709045 
	C1115.051880,531.832520 1111.639038,527.963867 1109.865479,522.225281 
	C1107.836304,515.660095 1108.003540,509.131042 1109.964111,502.657440 
	C1112.113403,495.560089 1117.255493,491.918945 1124.423706,492.069855 
	C1131.500732,492.218842 1136.052124,495.671448 1138.205933,502.767303 
	C1140.605713,510.673584 1140.322021,518.462341 1136.549072,526.336853 
z"/>
<path fill="#F6F6F6" opacity="1.000000" stroke="none" 
	d="
M733.701416,491.499084 
	C744.405640,490.638916 749.745911,495.803192 749.632019,506.703186 
	C740.566956,506.703186 731.495056,506.703186 722.420776,506.703186 
	C722.377991,498.853027 725.665344,494.307739 733.701416,491.499084 
z"/>
<path fill="#F8F9F7" opacity="1.000000" stroke="none" 
	d="
M463.025574,395.284576 
	C473.517273,400.892822 483.644989,406.476654 494.064209,412.173401 
	C504.340637,420.935333 513.692688,430.145691 520.695740,441.883881 
	C531.111816,459.391907 536.485657,478.068787 537.174561,498.564209 
	C537.153076,513.868286 534.654907,528.265747 528.936096,542.410278 
	C520.450806,561.301086 508.426575,577.002808 491.864380,589.538452 
	C483.567657,594.324219 475.522430,598.952820 467.319397,603.282349 
	C456.590942,608.944763 445.351257,608.109558 435.322388,602.599609 
	C427.214691,598.145142 422.369385,590.001099 420.568420,579.711853 
	C419.287201,569.960510 420.077209,561.260132 424.327698,552.775513 
	C432.352722,536.189331 441.730621,520.866821 453.932678,507.025818 
	C458.726624,505.997467 463.153870,504.600250 467.657745,504.279846 
	C473.865631,503.838287 478.967926,501.719757 482.588745,496.681061 
	C485.281067,492.934448 487.616699,488.931488 490.384766,484.850708 
	C494.474213,478.446594 498.290161,472.234436 502.372009,465.821045 
	C505.144958,461.347504 507.937744,457.207703 510.011139,452.734467 
	C510.785217,451.064453 509.880646,448.616333 509.741486,446.522980 
	C507.931519,447.279083 505.496613,447.533112 504.417480,448.876343 
	C499.152496,455.429382 494.249573,462.273315 488.963318,469.242920 
	C485.260956,473.949890 481.856659,478.462158 478.348145,482.891876 
	C476.653534,485.031403 474.595520,487.297333 471.678345,485.196808 
	C468.641266,483.009918 469.900543,480.445129 471.649139,477.828339 
	C474.396332,473.717072 476.840088,469.403015 479.729309,465.104401 
	C485.361237,457.263153 490.837036,449.593536 495.843597,441.628937 
	C496.750366,440.186401 495.733551,437.534760 495.604797,435.441315 
	C493.603180,436.018677 490.828796,435.954071 489.727844,437.279541 
	C483.497986,444.779602 477.669159,452.612732 471.446594,460.571594 
	C467.998596,464.802887 465.050354,469.034424 461.480164,472.652283 
	C460.292908,473.855347 457.509979,473.483734 455.456543,473.832031 
	C455.305725,471.440247 454.937500,469.032257 455.113586,466.664795 
	C455.181793,465.747131 456.481384,464.921082 457.502441,463.891235 
	C463.005707,456.427917 468.232361,449.130829 473.445038,441.823761 
	C476.147858,438.034943 479.083649,434.374603 481.367157,430.346100 
	C482.106964,429.040955 481.108063,426.750183 480.904480,424.910278 
	C479.175842,425.357086 476.810974,425.231842 475.816132,426.338348 
	C464.923920,438.453430 454.051819,450.599731 443.640991,463.125458 
	C440.927185,466.390564 439.832001,471.001007 437.922974,475.435242 
	C438.464386,481.877716 439.076263,487.878448 439.481689,494.151489 
	C436.973145,498.653534 434.671082,502.883270 432.487061,506.896149 
	C429.486267,500.051727 426.792175,493.906860 423.953186,487.463318 
	C419.164276,481.125397 414.520203,475.086212 409.750549,468.742737 
	C396.917114,455.087341 384.000183,441.900757 375.493622,423.588013 
	C370.673645,429.634277 366.262482,434.538239 362.566772,439.932404 
	C354.431488,451.806335 348.128967,464.554626 345.668884,479.327148 
	C344.760284,486.786804 344.029938,493.896881 343.218506,501.459839 
	C342.795563,512.828491 344.598022,523.372925 348.669800,533.879028 
	C355.764923,555.491028 380.056549,575.156006 393.625153,575.912842 
	C388.768829,562.614990 383.907776,549.304260 379.088654,535.585205 
	C376.740448,524.784607 374.350372,514.392395 372.087463,503.567444 
	C371.609558,496.826141 371.004425,490.517548 370.399292,484.208954 
	C370.719940,484.206024 371.040558,484.203094 371.361206,484.200165 
	C372.339966,488.473877 373.318756,492.747589 374.283752,497.395264 
	C377.469910,507.528168 380.669800,517.287048 383.917114,527.416138 
	C388.220642,537.009155 392.476746,546.232056 396.789978,555.800293 
	C401.009033,564.774719 405.170929,573.403625 409.332825,582.032593 
	C413.796692,591.036133 418.260529,600.039673 423.260101,610.123779 
	C397.841522,608.699036 376.987396,599.711426 358.413849,584.091431 
	C343.048157,570.052490 331.760101,553.625610 325.025696,534.190125 
	C324.294189,532.078979 323.939758,529.837158 323.219788,527.325928 
	C322.011383,516.506714 320.579102,506.034912 320.138641,495.521576 
	C319.893005,489.658875 321.296783,483.727081 321.966553,477.413696 
	C325.720825,466.604919 329.292664,456.141144 333.319183,445.855377 
	C334.486450,442.873596 336.956818,440.402008 338.941833,437.368103 
	C339.053864,437.039612 339.016327,437.026367 339.284210,436.886047 
	C340.084930,435.905975 340.617798,435.066223 341.150635,434.226501 
	C348.294952,426.954407 355.439240,419.682281 362.774445,412.133362 
	C373.810120,404.383209 385.015747,397.554199 397.854980,394.058929 
	C418.511169,388.435577 439.164612,388.190918 459.731018,394.664185 
	C460.676727,394.961853 461.683350,395.065918 463.025574,395.284576 
M470.217224,560.859070 
	C460.079407,567.673218 449.941589,574.487427 439.349670,581.606812 
	C448.085968,585.739685 456.633484,586.205811 465.203400,584.372131 
	C482.120056,580.752502 493.308044,569.754395 501.928741,554.648315 
	C508.388458,541.981384 511.143951,528.541260 510.809448,513.948853 
	C504.838135,516.027222 499.503448,518.300781 493.950745,519.723206 
	C484.624817,522.112183 475.096100,523.708496 465.767853,526.089417 
	C448.155518,530.584778 436.878723,541.861755 431.797485,559.242859 
	C430.126587,564.958496 429.356476,570.822327 431.978851,578.128662 
	C447.485809,570.136230 462.563751,562.364990 478.663788,554.066895 
	C475.520569,556.694885 473.193726,558.640259 470.217224,560.859070 
z"/>
<path fill="#68B24A" opacity="1.000000" stroke="none" 
	d="
M424.077118,553.014221 
	C420.077209,561.260132 419.287201,569.960510 420.412842,579.390686 
	C416.973541,580.568604 413.528870,581.287292 409.708496,582.019287 
	C405.170929,573.403625 401.009033,564.774719 396.998169,555.485107 
	C397.880920,554.840027 398.612488,554.865662 399.344208,554.869507 
	C404.604614,554.896912 409.877319,555.144897 415.120636,554.857727 
	C418.130768,554.692810 421.093201,553.657593 424.077118,553.014221 
z"/>
<path fill="#2A2B2A" opacity="1.000000" stroke="none" 
	d="
M855.658264,474.570740 
	C853.544739,477.868286 851.568542,480.825745 849.592285,483.783203 
	C849.267517,483.711426 848.942688,483.639679 848.617920,483.567902 
	C848.617920,477.898560 848.617920,472.229218 848.617920,465.812012 
	C852.768677,467.493530 855.398621,469.824707 855.658264,474.570740 
z"/>
<path fill="#2A2B2A" opacity="1.000000" stroke="none" 
	d="
M862.004883,476.922272 
	C862.004883,479.713135 862.004883,482.029755 862.004883,484.346405 
	C861.397644,484.326050 860.790344,484.305725 860.183105,484.285370 
	C860.183105,478.425781 860.183105,472.566223 860.183105,466.706635 
	C860.790344,466.684662 861.397644,466.662659 862.004883,466.640686 
	C862.004883,469.909821 862.004883,473.178925 862.004883,476.922272 
z"/>
<path fill="#2A2B2A" opacity="1.000000" stroke="none" 
	d="
M862.000793,534.427490 
	C861.922974,537.172363 861.861206,539.492065 861.734497,541.808289 
	C861.722290,542.031372 861.306396,542.232361 861.078796,542.442749 
	C858.415039,539.897522 858.408752,539.585815 861.093994,530.873901 
	C861.524048,532.360291 861.761414,533.180786 862.000793,534.427490 
z"/>
<path fill="#2A2B2A" opacity="1.000000" stroke="none" 
	d="
M861.792786,507.804932 
	C861.234802,508.047455 860.738647,507.994354 860.242493,507.941284 
	C860.355591,507.497589 860.468750,507.053894 860.581848,506.610199 
	C861.006104,506.909912 861.430359,507.209656 861.792786,507.804932 
z"/>
<path fill="#2A2B2A" opacity="1.000000" stroke="none" 
	d="
M860.955078,453.596100 
	C860.717163,453.205811 860.719055,452.817535 860.749023,452.431458 
	C860.749817,452.420654 861.050720,452.433105 861.211731,452.434723 
	C861.207458,452.822632 861.203125,453.210541 860.955078,453.596100 
z"/>
<path fill="#99C758" opacity="1.000000" stroke="none" 
	d="
M340.945190,433.961487 
	C340.617798,435.066223 340.084930,435.905975 339.291901,436.900879 
	C339.601074,435.936157 340.170441,434.816315 340.945190,433.961487 
z"/>
<path fill="#73B74A" opacity="1.000000" stroke="none" 
	d="
M470.866882,560.585693 
	C473.193726,558.640259 475.520569,556.694885 478.663788,554.066895 
	C462.563751,562.364990 447.485809,570.136230 431.978851,578.128662 
	C429.356476,570.822327 430.126587,564.958496 431.797485,559.242859 
	C436.878723,541.861755 448.155518,530.584778 465.767853,526.089417 
	C475.096100,523.708496 484.624817,522.112183 493.950745,519.723206 
	C499.503448,518.300781 504.838135,516.027222 510.809448,513.948853 
	C511.143951,528.541260 508.388458,541.981384 501.284210,554.859619 
	C494.091888,557.545959 487.438843,559.779175 481.028473,562.569946 
	C475.554138,564.953369 472.732056,564.681030 470.866882,560.585693 
z"/>
<path fill="#81BE51" opacity="1.000000" stroke="none" 
	d="
M490.111206,485.042725 
	C487.616699,488.931488 485.281067,492.934448 482.588745,496.681061 
	C478.967926,501.719757 473.865631,503.838287 467.657745,504.279846 
	C463.153870,504.600250 458.726624,505.997467 453.480347,506.996521 
	C444.564362,508.168854 436.739502,509.447632 432.316833,517.956787 
	C430.597290,521.265198 421.447052,522.650574 418.213806,520.317993 
	C412.678040,516.324280 407.218903,517.661316 401.729401,519.714600 
	C395.704956,521.967957 389.817108,524.586548 383.869720,527.045959 
	C380.669800,517.287048 377.469910,507.528168 374.664795,497.459503 
	C379.949402,497.099823 384.842926,497.152527 389.728119,496.975128 
	C396.492065,496.729462 403.280975,496.601196 410.000488,495.877411 
	C415.725983,495.260681 420.839844,492.965698 424.098053,487.761993 
	C426.792175,493.906860 429.486267,500.051727 432.487061,506.896149 
	C434.671082,502.883270 436.973145,498.653534 439.909485,494.181122 
	C450.715942,492.958862 460.906891,492.131317 471.046326,490.885193 
	C473.378418,490.598602 476.145782,489.413422 477.649384,487.705566 
	C481.329773,483.525116 485.085876,481.903015 490.111206,485.042725 
z"/>
<path fill="#8BC154" opacity="1.000000" stroke="none" 
	d="
M423.953186,487.463318 
	C420.839844,492.965698 415.725983,495.260681 410.000488,495.877411 
	C403.280975,496.601196 396.492065,496.729462 389.728119,496.975128 
	C384.842926,497.152527 379.949402,497.099823 374.678528,497.085510 
	C373.318756,492.747589 372.339966,488.473877 371.361206,484.200165 
	C371.040558,484.203094 370.719940,484.206024 370.399292,484.208954 
	C371.004425,490.517548 371.609558,496.826141 371.659790,503.566345 
	C361.695007,504.316284 352.233093,505.117981 343.299622,501.006989 
	C344.029938,493.896881 344.760284,486.786804 346.071533,479.334167 
	C348.152130,478.447632 349.731537,478.058350 351.138123,477.333618 
	C358.171631,473.709625 365.559906,470.743896 373.490082,472.453766 
	C386.093231,475.171204 398.273407,475.866028 409.876160,469.046997 
	C414.520203,475.086212 419.164276,481.125397 423.953186,487.463318 
z"/>
<path fill="#99C758" opacity="1.000000" stroke="none" 
	d="
M409.750580,468.742737 
	C398.273407,475.866028 386.093231,475.171204 373.490082,472.453766 
	C365.559906,470.743896 358.171631,473.709625 351.138123,477.333618 
	C349.731537,478.058350 348.152130,478.447632 346.249786,478.984619 
	C348.128967,464.554626 354.431488,451.806335 362.566772,439.932404 
	C366.262482,434.538239 370.673645,429.634277 375.493622,423.588013 
	C384.000183,441.900757 396.917114,455.087341 409.750580,468.742737 
z"/>
<path fill="#78B94E" opacity="1.000000" stroke="none" 
	d="
M383.917114,527.416138 
	C389.817108,524.586548 395.704956,521.967957 401.729401,519.714600 
	C407.218903,517.661316 412.678040,516.324280 418.213806,520.317993 
	C421.447052,522.650574 430.597290,521.265198 432.316833,517.956787 
	C436.739502,509.447632 444.564362,508.168854 453.147827,507.107758 
	C441.730621,520.866821 432.352722,536.189331 424.327698,552.775513 
	C421.093201,553.657593 418.130768,554.692810 415.120636,554.857727 
	C409.877319,555.144897 404.604614,554.896912 399.344208,554.869507 
	C398.612488,554.865662 397.880920,554.840027 396.941071,555.139709 
	C392.476746,546.232056 388.220642,537.009155 383.917114,527.416138 
z"/>
<path fill="#8BC154" opacity="1.000000" stroke="none" 
	d="
M490.384766,484.850739 
	C485.085876,481.903015 481.329773,483.525116 477.649384,487.705566 
	C476.145782,489.413422 473.378418,490.598602 471.046326,490.885193 
	C460.906891,492.131317 450.715942,492.958862 440.115936,493.908813 
	C439.076263,487.878448 438.464386,481.877716 438.281860,475.396729 
	C442.961243,471.958435 447.131409,468.874268 451.502014,466.106567 
	C453.171814,465.049133 455.300476,464.716339 457.220032,464.053314 
	C456.481384,464.921082 455.181793,465.747131 455.113586,466.664795 
	C454.937500,469.032257 455.305725,471.440247 455.456543,473.832031 
	C457.509979,473.483734 460.292908,473.855347 461.480164,472.652283 
	C465.050354,469.034424 467.998596,464.802887 471.628845,460.932373 
	C474.516296,462.427643 476.964325,463.801239 479.412354,465.174866 
	C476.840088,469.403015 474.396332,473.717072 471.649139,477.828339 
	C469.900543,480.445129 468.641266,483.009918 471.678345,485.196808 
	C474.595520,487.297333 476.653534,485.031403 478.348145,482.891876 
	C481.856659,478.462158 485.260956,473.949890 489.354065,469.240112 
	C494.035370,468.013245 498.070709,467.017761 502.106079,466.022308 
	C498.290161,472.234436 494.474213,478.446594 490.384766,484.850739 
z"/>
<path fill="#81BE51" opacity="1.000000" stroke="none" 
	d="
M343.218506,501.459839 
	C352.233093,505.117981 361.695007,504.316284 371.532593,503.999084 
	C374.350372,514.392395 376.740448,524.784607 378.726746,535.622253 
	C377.141266,536.643066 375.858063,537.073608 374.794739,537.818054 
	C368.984406,541.885742 366.747955,541.979431 360.878357,538.301819 
	C358.220734,536.636597 355.610718,534.848450 352.791687,533.511047 
	C351.657837,532.973083 350.021271,533.494751 348.613495,533.534180 
	C344.598022,523.372925 342.795563,512.828491 343.218506,501.459839 
z"/>
<path fill="#73B74A" opacity="1.000000" stroke="none" 
	d="
M348.669800,533.879028 
	C350.021271,533.494751 351.657837,532.973083 352.791687,533.511047 
	C355.610718,534.848450 358.220734,536.636597 360.878357,538.301819 
	C366.747955,541.979431 368.984406,541.885742 374.794739,537.818054 
	C375.858063,537.073608 377.141266,536.643066 378.684875,536.030640 
	C383.907776,549.304260 388.768829,562.614990 393.625153,575.912842 
	C380.056549,575.156006 355.764923,555.491028 348.669800,533.879028 
z"/>
<path fill="#68B24A" opacity="1.000000" stroke="none" 
	d="
M470.542053,560.722412 
	C472.732056,564.681030 475.554138,564.953369 481.028473,562.569946 
	C487.438843,559.779175 494.091888,557.545959 501.055237,555.102783 
	C493.308044,569.754395 482.120056,580.752502 465.203400,584.372131 
	C456.633484,586.205811 448.085968,585.739685 439.349670,581.606812 
	C449.941589,574.487427 460.079407,567.673218 470.542053,560.722412 
z"/>
<path fill="#99C758" opacity="1.000000" stroke="none" 
	d="
M457.502441,463.891235 
	C455.300476,464.716339 453.171814,465.049133 451.502014,466.106567 
	C447.131409,468.874268 442.961243,471.958435 438.352295,474.955017 
	C439.832001,471.001007 440.927185,466.390564 443.640991,463.125458 
	C454.051819,450.599731 464.923920,438.453430 475.816132,426.338348 
	C476.810974,425.231842 479.175842,425.357086 480.904480,424.910278 
	C481.108063,426.750183 482.106964,429.040955 481.367157,430.346100 
	C479.083649,434.374603 476.147858,438.034943 473.445038,441.823761 
	C468.232361,449.130829 463.005707,456.427917 457.502441,463.891235 
z"/>
<path fill="#A5CF5E" opacity="1.000000" stroke="none" 
	d="
M479.729309,465.104401 
	C476.964325,463.801239 474.516296,462.427643 471.885986,460.693237 
	C477.669159,452.612732 483.497986,444.779602 489.727844,437.279541 
	C490.828796,435.954071 493.603180,436.018677 495.604797,435.441315 
	C495.733551,437.534760 496.750366,440.186401 495.843597,441.628937 
	C490.837036,449.593536 485.361237,457.263153 479.729309,465.104401 
z"/>
<path fill="#99C758" opacity="1.000000" stroke="none" 
	d="
M502.371979,465.821045 
	C498.070709,467.017761 494.035370,468.013245 489.609314,469.011536 
	C494.249573,462.273315 499.152496,455.429382 504.417480,448.876343 
	C505.496613,447.533112 507.931519,447.279083 509.741486,446.522980 
	C509.880646,448.616333 510.785217,451.064453 510.011139,452.734467 
	C507.937744,457.207703 505.144958,461.347504 502.371979,465.821045 
z"/>
</svg>